<svg xmlns="http://www.w3.org/2000/svg" viewBox="0 0 400 400">
<circle cx="200" cy="200" r="14" fill="none" stroke="#D9A536" stroke-width="2"/>
<path d="M 222.0 200.0 C 240.0 200.0 310.0 222.0 370.0 246.0 S 352.0 270.0 352.0 240.0" fill="none" stroke="#D9A536" stroke-width="1.6" stroke-linecap="round"/>
<path d="M 298.5 220.7 Q 290.5 229.1 294.5 234.7" fill="none" stroke="#D9A536" stroke-width="1.6" stroke-linecap="round"/>
<path d="M 298.5 220.7 Q 290.5 212.3 294.5 206.7" fill="none" stroke="#D9A536" stroke-width="1.6" stroke-linecap="round"/>
<path d="M 331.0 232.2 Q 323.0 243.0 327.0 250.2" fill="none" stroke="#D9A536" stroke-width="1.6" stroke-linecap="round"/>
<path d="M 331.0 232.2 Q 323.0 221.4 327.0 214.2" fill="none" stroke="#D9A536" stroke-width="1.6" stroke-linecap="round"/>
<path d="M 219.8 209.5 C 236.0 217.4 289.6 267.5 333.2 315.2 S 306.6 329.0 319.6 302.0" fill="none" stroke="#D9A536" stroke-width="1.6" stroke-linecap="round"/>
<path d="M 279.8 261.4 Q 268.9 265.5 270.1 272.3" fill="none" stroke="#D9A536" stroke-width="1.6" stroke-linecap="round"/>
<path d="M 279.8 261.4 Q 276.2 250.3 282.2 247.0" fill="none" stroke="#D9A536" stroke-width="1.6" stroke-linecap="round"/>
<path d="M 304.1 285.8 Q 292.2 292.1 292.6 300.3" fill="none" stroke="#D9A536" stroke-width="1.6" stroke-linecap="round"/>
<path d="M 304.1 285.8 Q 301.5 272.6 308.3 267.9" fill="none" stroke="#D9A536" stroke-width="1.6" stroke-linecap="round"/>
<path d="M 213.7 217.2 C 224.9 231.3 251.4 299.7 270.0 361.6 S 240.0 362.5 263.5 343.8" fill="none" stroke="#D9A536" stroke-width="1.6" stroke-linecap="round"/>
<path d="M 245.2 289.9 Q 233.7 288.9 231.8 295.5" fill="none" stroke="#D9A536" stroke-width="1.6" stroke-linecap="round"/>
<path d="M 245.2 289.9 Q 246.8 278.4 253.7 278.1" fill="none" stroke="#D9A536" stroke-width="1.6" stroke-linecap="round"/>
<path d="M 256.5 322.5 Q 243.1 323.0 239.9 330.6" fill="none" stroke="#D9A536" stroke-width="1.6" stroke-linecap="round"/>
<path d="M 256.5 322.5 Q 260.0 309.5 268.1 308.1" fill="none" stroke="#D9A536" stroke-width="1.6" stroke-linecap="round"/>
<path d="M 204.9 221.4 C 208.9 239.0 203.0 312.1 193.0 376.0 S 165.6 363.8 194.8 357.1" fill="none" stroke="#D9A536" stroke-width="1.6" stroke-linecap="round"/>
<path d="M 201.7 300.6 Q 191.8 294.7 187.2 299.9" fill="none" stroke="#D9A536" stroke-width="1.6" stroke-linecap="round"/>
<path d="M 201.7 300.6 Q 208.1 291.0 214.5 293.6" fill="none" stroke="#D9A536" stroke-width="1.6" stroke-linecap="round"/>
<path d="M 197.8 334.9 Q 185.4 329.5 179.3 335.0" fill="none" stroke="#D9A536" stroke-width="1.6" stroke-linecap="round"/>
<path d="M 197.8 334.9 Q 206.5 324.7 214.4 327.0" fill="none" stroke="#D9A536" stroke-width="1.6" stroke-linecap="round"/>
<path d="M 195.1 221.4 C 191.1 239.0 154.1 302.3 117.3 355.5 S 97.9 332.6 127.2 339.3" fill="none" stroke="#D9A536" stroke-width="1.6" stroke-linecap="round"/>
<path d="M 157.9 291.4 Q 151.5 281.8 145.1 284.4" fill="none" stroke="#D9A536" stroke-width="1.6" stroke-linecap="round"/>
<path d="M 157.9 291.4 Q 167.9 285.5 172.4 290.6" fill="none" stroke="#D9A536" stroke-width="1.6" stroke-linecap="round"/>
<path d="M 139.5 320.6 Q 130.7 310.3 122.8 312.6" fill="none" stroke="#D9A536" stroke-width="1.6" stroke-linecap="round"/>
<path d="M 139.5 320.6 Q 151.8 315.2 157.9 320.7" fill="none" stroke="#D9A536" stroke-width="1.6" stroke-linecap="round"/>
<path d="M 186.3 217.2 C 175.1 231.3 114.2 272.3 58.0 304.2 S 50.5 275.2 74.0 293.9" fill="none" stroke="#D9A536" stroke-width="1.6" stroke-linecap="round"/>
<path d="M 122.4 264.1 Q 120.8 252.6 114.0 252.2" fill="none" stroke="#D9A536" stroke-width="1.6" stroke-linecap="round"/>
<path d="M 122.4 264.1 Q 134.0 263.1 135.8 269.7" fill="none" stroke="#D9A536" stroke-width="1.6" stroke-linecap="round"/>
<path d="M 93.1 282.3 Q 89.7 269.4 81.6 268.0" fill="none" stroke="#D9A536" stroke-width="1.6" stroke-linecap="round"/>
<path d="M 93.1 282.3 Q 106.6 282.8 109.7 290.4" fill="none" stroke="#D9A536" stroke-width="1.6" stroke-linecap="round"/>
<path d="M 180.2 209.5 C 164.0 217.4 91.3 227.9 26.9 232.3 S 32.7 202.9 45.7 229.9" fill="none" stroke="#D9A536" stroke-width="1.6" stroke-linecap="round"/>
<path d="M 102.3 224.1 Q 105.8 213.0 99.8 209.7" fill="none" stroke="#D9A536" stroke-width="1.6" stroke-linecap="round"/>
<path d="M 102.3 224.1 Q 113.1 228.2 112.0 235.0" fill="none" stroke="#D9A536" stroke-width="1.6" stroke-linecap="round"/>
<path d="M 68.0 227.8 Q 70.5 214.6 63.8 209.9" fill="none" stroke="#D9A536" stroke-width="1.6" stroke-linecap="round"/>
<path d="M 68.0 227.8 Q 79.9 234.1 79.4 242.3" fill="none" stroke="#D9A536" stroke-width="1.6" stroke-linecap="round"/>
<path d="M 178.0 200.0 C 160.0 200.0 90.0 178.0 30.0 154.0 S 48.0 130.0 48.0 160.0" fill="none" stroke="#D9A536" stroke-width="1.6" stroke-linecap="round"/>
<path d="M 101.5 179.3 Q 109.5 170.9 105.5 165.3" fill="none" stroke="#D9A536" stroke-width="1.6" stroke-linecap="round"/>
<path d="M 101.5 179.3 Q 109.5 187.7 105.5 193.3" fill="none" stroke="#D9A536" stroke-width="1.6" stroke-linecap="round"/>
<path d="M 69.0 167.8 Q 77.0 157.0 73.0 149.8" fill="none" stroke="#D9A536" stroke-width="1.6" stroke-linecap="round"/>
<path d="M 69.0 167.8 Q 77.0 178.6 73.0 185.8" fill="none" stroke="#D9A536" stroke-width="1.6" stroke-linecap="round"/>
<path d="M 180.2 190.5 C 164.0 182.6 110.4 132.5 66.8 84.8 S 93.4 71.0 80.4 98.0" fill="none" stroke="#D9A536" stroke-width="1.6" stroke-linecap="round"/>
<path d="M 120.2 138.6 Q 131.1 134.5 129.9 127.7" fill="none" stroke="#D9A536" stroke-width="1.6" stroke-linecap="round"/>
<path d="M 120.2 138.6 Q 123.8 149.7 117.8 153.0" fill="none" stroke="#D9A536" stroke-width="1.6" stroke-linecap="round"/>
<path d="M 95.9 114.2 Q 107.8 107.9 107.4 99.7" fill="none" stroke="#D9A536" stroke-width="1.6" stroke-linecap="round"/>
<path d="M 95.9 114.2 Q 98.5 127.4 91.7 132.1" fill="none" stroke="#D9A536" stroke-width="1.6" stroke-linecap="round"/>
<path d="M 186.3 182.8 C 175.1 168.7 148.6 100.3 130.0 38.4 S 160.0 37.5 136.5 56.2" fill="none" stroke="#D9A536" stroke-width="1.6" stroke-linecap="round"/>
<path d="M 154.8 110.1 Q 166.3 111.1 168.2 104.5" fill="none" stroke="#D9A536" stroke-width="1.6" stroke-linecap="round"/>
<path d="M 154.8 110.1 Q 153.2 121.6 146.3 121.9" fill="none" stroke="#D9A536" stroke-width="1.6" stroke-linecap="round"/>
<path d="M 143.5 77.5 Q 156.9 77.0 160.1 69.4" fill="none" stroke="#D9A536" stroke-width="1.6" stroke-linecap="round"/>
<path d="M 143.5 77.5 Q 140.0 90.5 131.9 91.9" fill="none" stroke="#D9A536" stroke-width="1.6" stroke-linecap="round"/>
<path d="M 195.1 178.6 C 191.1 161.0 197.0 87.9 207.0 24.0 S 234.4 36.2 205.2 42.9" fill="none" stroke="#D9A536" stroke-width="1.6" stroke-linecap="round"/>
<path d="M 198.3 99.4 Q 208.2 105.3 212.8 100.1" fill="none" stroke="#D9A536" stroke-width="1.6" stroke-linecap="round"/>
<path d="M 198.3 99.4 Q 191.9 109.0 185.5 106.4" fill="none" stroke="#D9A536" stroke-width="1.6" stroke-linecap="round"/>
<path d="M 202.2 65.1 Q 214.6 70.5 220.7 65.0" fill="none" stroke="#D9A536" stroke-width="1.6" stroke-linecap="round"/>
<path d="M 202.2 65.1 Q 193.5 75.3 185.6 73.0" fill="none" stroke="#D9A536" stroke-width="1.6" stroke-linecap="round"/>
<path d="M 204.9 178.6 C 208.9 161.0 245.9 97.7 282.7 44.5 S 302.1 67.4 272.8 60.7" fill="none" stroke="#D9A536" stroke-width="1.6" stroke-linecap="round"/>
<path d="M 242.1 108.6 Q 248.5 118.2 254.9 115.6" fill="none" stroke="#D9A536" stroke-width="1.6" stroke-linecap="round"/>
<path d="M 242.1 108.6 Q 232.1 114.5 227.6 109.4" fill="none" stroke="#D9A536" stroke-width="1.6" stroke-linecap="round"/>
<path d="M 260.5 79.4 Q 269.3 89.7 277.2 87.4" fill="none" stroke="#D9A536" stroke-width="1.6" stroke-linecap="round"/>
<path d="M 260.5 79.4 Q 248.2 84.8 242.1 79.3" fill="none" stroke="#D9A536" stroke-width="1.6" stroke-linecap="round"/>
<path d="M 213.7 182.8 C 224.9 168.7 285.8 127.7 342.0 95.8 S 349.5 124.8 326.0 106.1" fill="none" stroke="#D9A536" stroke-width="1.6" stroke-linecap="round"/>
<path d="M 277.6 135.9 Q 279.2 147.4 286.0 147.8" fill="none" stroke="#D9A536" stroke-width="1.6" stroke-linecap="round"/>
<path d="M 277.6 135.9 Q 266.0 136.9 264.2 130.3" fill="none" stroke="#D9A536" stroke-width="1.6" stroke-linecap="round"/>
<path d="M 306.9 117.7 Q 310.3 130.6 318.4 132.0" fill="none" stroke="#D9A536" stroke-width="1.6" stroke-linecap="round"/>
<path d="M 306.9 117.7 Q 293.4 117.2 290.3 109.6" fill="none" stroke="#D9A536" stroke-width="1.6" stroke-linecap="round"/>
<path d="M 219.8 190.5 C 236.0 182.6 308.7 172.1 373.1 167.7 S 367.3 197.1 354.3 170.1" fill="none" stroke="#D9A536" stroke-width="1.6" stroke-linecap="round"/>
<path d="M 297.7 175.9 Q 294.2 187.0 300.2 190.3" fill="none" stroke="#D9A536" stroke-width="1.6" stroke-linecap="round"/>
<path d="M 297.7 175.9 Q 286.9 171.8 288.0 165.0" fill="none" stroke="#D9A536" stroke-width="1.6" stroke-linecap="round"/>
<path d="M 332.0 172.2 Q 329.5 185.4 336.2 190.1" fill="none" stroke="#D9A536" stroke-width="1.6" stroke-linecap="round"/>
<path d="M 332.0 172.2 Q 320.1 165.9 320.6 157.7" fill="none" stroke="#D9A536" stroke-width="1.6" stroke-linecap="round"/>
</svg>